<svg width="14" height="10" viewBox="0 0 14 10" fill="none" xmlns="http://www.w3.org/2000/svg">
<path d="M14 0.749999C14 0.546875 13.875 0.367187 13.6953 0.289062C13.6328 0.265624 13.5625 0.25 13.5 0.25C13.3672 0.25 13.2422 0.296875 13.1484 0.398437L10 3.53906V2.25C10 1.00781 8.99219 -2.38419e-07 7.75 -2.38419e-07H2.25C1.00781 -2.38419e-07 0 1.00781 0 2.25V7.75C0 8.99219 1.00781 10 2.25 10H7.75C8.99219 10 10 8.99219 10 7.75V6.45312L13.1484 9.60156C13.2422 9.70312 13.3672 9.75 13.5 9.75C13.5625 9.75 13.6328 9.73437 13.6953 9.71094C13.875 9.63281 14 9.45312 14 9.25V0.749999Z" fill="black"/>
</svg>
