<?xml version="1.0" encoding="utf-8"?>
<!-- Generator: Adobe Illustrator 25.0.0, SVG Export Plug-In . SVG Version: 6.00 Build 0)  -->
<svg version="1.1" id="Capa_1" xmlns="http://www.w3.org/2000/svg" xmlns:xlink="http://www.w3.org/1999/xlink" x="0px" y="0px"
	 viewBox="0 0 316.9 231.3" style="enable-background:new 0 0 316.9 231.3;" xml:space="preserve">
<style type="text/css">
	.st0{fill:#FFFFFF;}
</style>
<g>
	<g id="Check">
		<path d="M110.4,224.3c-5.1,0-9.9-2-13.5-5.5l-84.2-83C9,132.2,7,127.4,7,122.3s2-9.9,5.6-13.5s8.4-5.6,13.5-5.6s9.9,2,13.5,5.6
			l70.6,69.6l167-165.9C280.9,9,285.7,7,290.8,7c3.4,0,6.7,0.9,9.6,2.6c1.4,0.5,2.5,1.6,3.9,3c1.5,1.5,2.5,2.5,3,3.9
			c1.7,2.9,2.6,6.2,2.6,9.6c0,5.1-2,9.9-5.6,13.5L123.9,218.7C120.3,222.3,115.5,224.3,110.4,224.3z"/>
		<path class="st0" d="M290.8,14c3.1,0,6.2,1.2,8.6,3.5c4.8,4.7,4.8,12.3,0,17L118.9,213.8c-2.3,2.3-5.5,3.5-8.6,3.5
			s-6.2-1.2-8.6-3.5l-84.2-83c-4.7-4.7-4.7-12.3,0-17c2.4-2.4,5.5-3.5,8.6-3.5s6.2,1.2,8.6,3.5l75.6,74.5L282.2,17.5
			C284.6,15.2,287.7,14,290.8,14 M298,16.2l2.7,2.7c0,0-0.4-0.4-1.4-1.4C298.4,16.5,298,16.2,298,16.2 M290.8,0
			c-7,0-13.5,2.7-18.5,7.6l-162.1,161l-65.7-64.8c-4.9-4.9-11.5-7.6-18.4-7.6s-13.5,2.7-18.5,7.6s-7.7,11.5-7.7,18.5
			s2.7,13.5,7.7,18.4l84.2,83c4.9,4.8,11.4,7.5,18.4,7.5s13.5-2.7,18.4-7.5L309.2,44.5c5-4.9,7.7-11.4,7.7-18.4
			c0-4.6-1.2-9-3.4-12.9c-1.1-2.5-2.9-4.2-4.3-5.6s-3.1-3.1-5.6-4.2C299.8,1.2,295.4,0,290.8,0L290.8,0z"/>
	</g>
</g>
</svg>
