<?xml version="1.0" encoding="utf-8"?>
<!-- Generator: Adobe Illustrator 25.0.0, SVG Export Plug-In . SVG Version: 6.00 Build 0)  -->
<svg version="1.1" id="Capa_1" xmlns="http://www.w3.org/2000/svg" xmlns:xlink="http://www.w3.org/1999/xlink" x="0px" y="0px"
	 viewBox="0 0 356.9 271.3" style="enable-background:new 0 0 356.9 271.3;" xml:space="preserve">
<style type="text/css">
	.st0{fill:#FFFFFF;}
</style>
<g>
	<path d="M93.5,262.4c5.9,5.7,13.7,8.9,21.9,8.9c8.3,0,16.1-3.2,22-9.1L317.8,83.1c5.9-5.9,9.1-13.7,9.1-22c0-5.2-1.3-10.3-3.8-14.8
		c-1.4-3.2-3.6-5.4-5.3-7.1c-1.7-1.7-3.9-3.9-7.1-5.3c-4.5-2.5-9.7-3.8-14.9-3.8c-8.1,0-15.9,3.1-21.8,8.8L115.2,196.5l-62.1-61.2
		c-5.9-5.9-13.7-9.1-22-9.1c-8.3,0-16.1,3.2-22,9.1C3.2,141.2,0,149,0,157.3c0,8.4,3.3,16.2,9.3,22L93.5,262.4z"/>
	<g>
		<path class="st0" d="M350,32.9c-3.7-7.6-8.6-12.5-11-15c-2.4-2.4-7.3-7.3-14.9-11c-8.7-4.6-18.5-7-28.3-7c-15.8,0-30.9,6-42.5,17
			l-0.3,0.3l-0.3,0.3l-82.2,81.7l21.6,20.8L274,38.8c6-5.7,13.7-8.8,21.8-8.8c5.2,0,10.3,1.3,14.9,3.8c3.3,1.5,5.5,3.7,7.1,5.3
			c1.8,1.8,3.9,3.9,5.3,7.1c2.5,4.5,3.8,9.7,3.8,14.8c0,8.3-3.2,16.1-9.1,22L237,163.3l21.6,20.8l80.3-79.7l0,0l0,0
			c11.5-11.5,17.9-26.9,17.9-43.2C356.9,51.3,354.5,41.6,350,32.9z"/>
	</g>
</g>
<g>
	<path class="st0" d="M-133.8-4.6c-3.1-6.6-7.4-10.8-9.7-13.2c-2.3-2.3-6.5-6.5-13.1-9.6c-7.7-4.1-16.4-6.2-25.1-6.2
		c-14,0-27.4,5.4-37.7,15.1l-0.2,0.2l-0.2,0.2l-70.6,70.1l75.7,77.5l71.1-70.6l0,0l0,0c10.2-10.2,15.9-23.8,15.9-38.2
		C-127.6,11.7-129.8,3.1-133.8-4.6z"/>
	<path d="M-150.6,20.5c0-5.2-1.3-10.3-3.8-14.8c-1.4-3.2-3.6-5.4-5.3-7.1c-1.7-1.7-3.9-3.9-7.1-5.3c-4.5-2.5-9.7-3.8-14.9-3.8
		c-8.1,0-15.9,3.1-21.8,8.8l-158.8,157.7l-62.1-61.2c-5.9-5.9-13.7-9.1-22-9.1c-8.3,0-16.1,3.2-22,9.1c-5.9,5.9-9.1,13.7-9.1,22
		c0,8.4,3.3,16.2,9.3,22l84.3,83.1c5.9,5.7,13.7,8.9,21.9,8.9c8.3,0,16.1-3.2,22-9.1l180.4-179.1C-153.9,36.6-150.6,28.8-150.6,20.5
		z"/>
</g>
</svg>
