<svg xmlns="http://www.w3.org/2000/svg" viewBox="0 0 349.8 264.4"><defs><style>.cls-1{fill:#fff;}</style></defs><g id="Calque_2" data-name="Calque 2"><g id="Capa_1" data-name="Capa 1"><path class="cls-1" d="M343.7,29A47.4,47.4,0,0,0,334,15.8a45.21,45.21,0,0,0-13.1-9.6A53.59,53.59,0,0,0,295.8,0a54.91,54.91,0,0,0-37.7,15.1l-.2.2-.2.2L135.4,137.3l75.7,77.5L333.9,92.5h0A54.45,54.45,0,0,0,343.7,29Z"/><path d="M326.9,54.1a30.47,30.47,0,0,0-3.8-14.8,23,23,0,0,0-5.3-7.1,23,23,0,0,0-7.1-5.3,30.85,30.85,0,0,0-14.9-3.8A31.3,31.3,0,0,0,274,31.9L115.2,189.6,53.1,128.4a31.14,31.14,0,0,0-44,0,30.86,30.86,0,0,0-9.1,22,30.31,30.31,0,0,0,9.3,22l84.3,83.1a31.46,31.46,0,0,0,21.9,8.9,30.86,30.86,0,0,0,22-9.1L317.9,76.2A32,32,0,0,0,326.9,54.1Z"/></g></g></svg>