<svg width="14" height="14" viewBox="0 0 14 14" fill="none" xmlns="http://www.w3.org/2000/svg">
<path d="M13.25 3H10C9.69531 3 9.30469 3.13281 9 3.3125V0.75C9 0.335938 8.66406 0 8.25 0H5C4.58594 0 4.00781 0.242188 3.71875 0.53125L0.53125 3.71875C0.242188 4.00781 0 4.58594 0 5V10.25C0 10.6641 0.335938 11 0.75 11H5V13.25C5 13.6641 5.33594 14 5.75 14H13.25C13.6641 14 14 13.6641 14 13.25V3.75C14 3.33594 13.6641 3 13.25 3ZM9 4.66406V7H6.66406L9 4.66406ZM4 1.66406V4H1.66406L4 1.66406ZM5.53125 6.71875C5.24219 7.00781 5 7.58594 5 8V10H1V5H4.25C4.66406 5 5 4.66406 5 4.25V1H8V4.25L5.53125 6.71875ZM13 13H6V8H9.25C9.66406 8 10 7.66406 10 7.25V4H13V13Z" fill="black"/>
</svg>
