<svg height="329" width="329.26933" xmlns="http://www.w3.org/2000/svg" style=""><rect id="backgroundrect" width="100%" height="100%" x="0" y="0" fill="none" stroke="none"/><g class="currentLayer" style=""><title>Layer 1</title><path d="m194.80078125,164.11163651943207 l128.2109375,-128.21484375 c8.34375,-8.33984375 8.34375,-21.82421875 0,-30.1640625 c-8.33984375,-8.33984375 -21.82421875,-8.33984375 -30.1640625,0 l-128.21484375,128.21484375 l-128.2109375,-128.21484375 c-8.34375,-8.33984375 -21.82421875,-8.33984375 -30.1640625,0 c-8.34375,8.33984375 -8.34375,21.82421875 0,30.1640625 l128.2109375,128.21484375 l-128.2109375,128.21484375 c-8.34375,8.33984375 -8.34375,21.82421875 0,30.1640625 c4.15625,4.160155773162842 9.62109375,6.25 15.082032203674316,6.25 c5.460937023162842,0 10.921875,-2.089843988418579 15.08203125,-6.25 l128.2109375,-128.21484375 l128.21484375,128.21484375 c4.160155773162842,4.160155773162842 9.62109375,6.25 15.082032203674316,6.25 c5.460937023162842,0 10.921874046325684,-2.089843988418579 15.08203125,-6.25 c8.34375,-8.33984375 8.34375,-21.82421875 0,-30.1640625 zm0,0 " id="svg_1" class="selected" fill="#ffffff" fill-opacity="1"/></g></svg>