<svg width="18" height="18" viewBox="0 0 18 18" fill="none" xmlns="http://www.w3.org/2000/svg">
<path d="M10.2846 14.3827C10.2846 14.5635 10.144 14.7141 9.96322 14.7141H8.03465C7.85384 14.7141 7.71322 14.5635 7.71322 14.3827V12.4742C7.71322 12.2934 7.85384 12.1427 8.03465 12.1427H9.96322C10.144 12.1427 10.2846 12.2934 10.2846 12.4742V14.3827ZM10.2646 10.626C10.2545 10.7566 10.1038 10.857 9.92304 10.857H8.06478C7.87393 10.857 7.72326 10.7566 7.72326 10.626L7.5525 6.03558C7.5525 5.97531 7.58264 5.87486 7.65295 5.82464C7.71322 5.77442 7.80362 5.71415 7.89402 5.71415H10.1038C10.1942 5.71415 10.2846 5.77442 10.3449 5.82464C10.4152 5.87486 10.4454 5.95522 10.4454 6.01549L10.2646 10.626ZM10.1239 1.24428C9.90295 0.83245 9.47103 0.571289 8.99893 0.571289C8.52684 0.571289 8.09492 0.83245 7.87393 1.24428L0.159647 15.3871C-0.0613351 15.7789 -0.0512905 16.261 0.179736 16.6528C0.410763 17.0445 0.832638 17.2856 1.28465 17.2856H16.7132C17.1652 17.2856 17.5871 17.0445 17.8181 16.6528C18.0492 16.261 18.0592 15.7789 17.8382 15.3871L10.1239 1.24428Z" fill="#FF0000"/>
</svg>
