<svg width="13" height="12" viewBox="0 0 13 12" fill="none" xmlns="http://www.w3.org/2000/svg">
<path d="M8.49805 9.75C8.49805 9.89062 8.38867 10 8.24805 10H4.74805C4.60742 10 4.49805 9.89062 4.49805 9.75V8.5C4.49805 8.35937 4.60742 8.25 4.74805 8.25H5.49805V5.75H4.74805C4.60742 5.75 4.49805 5.64062 4.49805 5.5V4.25C4.49805 4.10937 4.60742 4 4.74805 4H7.24805C7.38867 4 7.49805 4.10937 7.49805 4.25V8.25H8.24805C8.38867 8.25 8.49805 8.35937 8.49805 8.5V9.75ZM7.49805 2.75C7.49805 2.89062 7.38867 3 7.24805 3H5.74805C5.60742 3 5.49805 2.89062 5.49805 2.75V1.5C5.49805 1.35937 5.60742 1.25 5.74805 1.25H7.24805C7.38867 1.25 7.49805 1.35937 7.49805 1.5V2.75ZM12.498 6C12.498 2.6875 9.81055 -5.96046e-07 6.49805 -5.96046e-07C3.18555 -5.96046e-07 0.498047 2.6875 0.498047 6C0.498047 9.3125 3.18555 12 6.49805 12C9.81055 12 12.498 9.3125 12.498 6Z" fill="black"/>
</svg>
