<svg viewBox="0 0 16 17" fill="none" xmlns="http://www.w3.org/2000/svg">
<path d="M12.8571 8.89286C12.8571 9.15402 12.6964 9.38504 12.4654 9.48549C12.385 9.51562 12.2946 9.53571 12.2143 9.53571C12.0435 9.53571 11.8828 9.47545 11.7623 9.34487L10.3158 7.89844L4.95201 13.2623C4.70089 13.5134 4.29911 13.5134 4.04799 13.2623L3.02344 12.2377C2.77232 11.9866 2.77232 11.5848 3.02344 11.3337L8.38728 5.96987L6.94085 4.52344C6.75 4.34263 6.69978 4.06138 6.80022 3.82031C6.90067 3.58929 7.1317 3.42857 7.39286 3.42857H12.2143C12.5658 3.42857 12.8571 3.71987 12.8571 4.07143V8.89286ZM15.4286 3.75C15.4286 2.1529 14.1328 0.857142 12.5357 0.857142H2.89286C1.29576 0.857142 0 2.1529 0 3.75V13.3929C0 14.99 1.29576 16.2857 2.89286 16.2857H12.5357C14.1328 16.2857 15.4286 14.99 15.4286 13.3929V3.75Z" fill="#009EC3"/>
</svg>
