<svg viewBox="0 0 19 20" fill="none" xmlns="http://www.w3.org/2000/svg">
<path d="M14.9286 10.9286C14.9286 11.3583 14.5725 11.7143 14.1429 11.7143H11V14.8571C11 15.2868 10.644 15.6429 10.2143 15.6429H8.64286C8.21317 15.6429 7.85714 15.2868 7.85714 14.8571V11.7143H4.71429C4.2846 11.7143 3.92857 11.3583 3.92857 10.9286V9.35714C3.92857 8.92745 4.2846 8.57143 4.71429 8.57143H7.85714V5.42857C7.85714 4.99888 8.21317 4.64286 8.64286 4.64286H10.2143C10.644 4.64286 11 4.99888 11 5.42857V8.57143H14.1429C14.5725 8.57143 14.9286 8.92745 14.9286 9.35714V10.9286ZM18.8571 10.1429C18.8571 4.9375 14.6339 0.714285 9.42857 0.714285C4.22321 0.714285 0 4.9375 0 10.1429C0 15.3482 4.22321 19.5714 9.42857 19.5714C14.6339 19.5714 18.8571 15.3482 18.8571 10.1429Z" fill="black"/>
</svg>
