<svg width="122" height="37" viewBox="0 0 122 37" fill="none" xmlns="http://www.w3.org/2000/svg">
<path d="M30.6717 8.38599C31.385 6.33765 32.1774 4.28931 32.8906 2.16219C33.0491 1.76828 33.2076 1.6895 33.5246 1.6895C33.8416 1.6895 34.1585 1.6895 34.5548 1.6895C35.1095 5.2347 35.585 8.7799 36.1397 12.3251C35.4265 12.3251 34.7925 12.3251 34.0793 12.3251C33.8416 10.2768 33.5246 8.22843 33.2868 6.10131C33.1284 6.25887 33.0491 6.33765 33.0491 6.49522C32.4151 8.38599 31.7019 10.2768 31.068 12.0888C30.9887 12.4039 30.8302 12.4827 30.5133 12.4827C30.1963 12.4827 30.117 12.2463 30.0378 12.01C29.4831 10.3555 28.9283 8.7799 28.3736 7.12548C28.2944 6.81035 28.0566 6.49522 27.8981 6.02252C27.5812 8.22843 27.2642 10.198 27.0264 12.2463C26.3132 12.2463 25.6793 12.2463 24.9661 12.2463C25.5208 8.70112 26.1547 5.15592 26.7095 1.61072C27.1057 1.61072 27.5812 1.61072 27.9774 1.61072C28.0566 1.61072 28.2151 1.76828 28.2944 1.92585C28.6114 2.79245 28.9283 3.73784 29.3246 4.60444C29.7208 5.62861 30.117 6.574 30.5133 7.59817C30.5925 7.75573 30.6717 7.99208 30.751 8.14964C30.5925 8.38599 30.5925 8.38599 30.6717 8.38599Z" fill="#D0090A"/>
<path d="M4.99614 27.8451C6.58105 24.2999 10.5433 23.8272 12.9999 25.718C14.0301 24.6938 15.1396 23.5909 16.249 22.5667C16.566 22.2516 16.8037 22.0152 17.1207 21.7001C17.7547 21.0699 17.9132 21.0699 18.4679 21.7001C17.8339 22.4092 17.1207 23.1182 16.4867 23.8272C15.6943 24.6151 14.9018 25.4029 14.0301 26.2695C13.7131 26.5058 13.9509 26.7422 14.1094 26.9785C14.7433 27.9239 15.0603 28.9481 14.9811 30.1298C14.8226 31.863 13.6339 33.7538 11.732 34.4628C9.51313 35.2507 7.61124 34.778 6.02633 33.1235C5.55086 32.5721 5.23387 31.7842 4.83765 31.154C4.83765 30.3662 4.83765 29.5783 4.83765 28.8693C4.83765 28.3966 4.91689 28.1603 4.99614 27.8451ZM5.86784 28.7117C5.47161 29.342 5.6301 29.9722 5.70935 30.6025C5.70935 30.6025 5.78859 30.6813 5.86784 30.6813C6.02633 31.0752 6.10558 31.3903 6.34331 31.7842C7.69049 34.1477 10.7811 34.4628 12.8414 32.5721C13.7924 31.6267 14.3471 29.6571 13.5547 28.1603C12.7622 26.7422 11.6528 25.7968 10.0679 25.718C8.08671 25.5604 6.42256 26.6634 5.86784 28.7117Z" fill="#86F815"/>
<path d="M4.20374 14.1371H4.28299C5.15469 14.1371 6.02639 14.1371 6.81884 14.1371C6.89809 14.1371 6.97734 14.1371 6.97734 14.1371C7.13583 14.2159 7.29432 14.2946 7.45281 14.4522C7.92828 14.6886 8.40376 14.9249 8.87923 15.24C9.98867 16.0279 10.6226 17.052 10.8604 18.3125C10.9396 18.7065 11.1773 18.7065 11.4151 18.7065C13.0792 18.7065 14.8226 18.7065 16.4868 18.7065C16.6453 18.7065 16.8038 18.7065 16.9623 18.7065C16.9623 19.0216 16.9623 19.3367 16.9623 19.7306C16.8038 19.7306 16.566 19.7306 16.4076 19.7306C14.8226 19.7306 13.2377 19.7306 11.6528 19.7306C11.0981 19.7306 10.9396 19.8882 10.8604 20.3609C10.4641 22.2517 9.43395 23.6697 7.53205 24.3788C6.26413 24.9303 4.91695 24.9303 3.64902 24.4576C1.50939 23.7485 0.0829748 21.6214 0.00372927 19.5731C-0.0755163 17.4459 1.11317 15.3976 3.09431 14.4522C3.2528 14.3734 3.41129 14.3734 3.56978 14.2947C3.88676 14.2947 4.04525 14.2159 4.20374 14.1371ZM9.51319 17.2096C9.43395 17.1308 9.43395 17.052 9.3547 17.052L9.27546 16.9732C8.24527 15.5552 6.89809 14.8461 5.23393 15.0825C3.49053 15.24 2.14336 16.1854 1.50939 17.8399C0.716939 19.8094 1.50939 22.4092 3.64902 23.4334C5.94714 24.5363 8.72074 23.591 9.75093 21.1487C10.1472 20.2033 10.0679 19.1791 9.90942 18.155C9.83017 17.9974 9.75093 17.8399 9.67168 17.6035C9.67168 17.6035 9.67168 17.6035 9.67168 17.5247C9.59244 17.3672 9.51319 17.2884 9.51319 17.2096Z" fill="#4ABCF6"/>
<path d="M29.6415 24.7726C26.5509 24.6938 24.2528 22.4092 24.1736 19.4154C24.0943 16.4217 26.6302 13.9007 29.6415 13.9795C32.6528 13.9795 35.1094 16.3429 35.1094 19.4154C35.0302 22.3304 32.7321 24.6938 29.6415 24.7726ZM29.5623 15.0824C27.1056 15.0824 25.3622 17.052 25.283 19.3367C25.283 21.7789 27.1849 23.5909 29.5623 23.5909C31.8604 23.5909 33.7623 21.7789 33.7623 19.2579C33.9208 16.9732 32.0189 15.0824 29.5623 15.0824Z" fill="#F6820E"/>
<path d="M103.578 6.18002C103.578 6.02245 103.578 5.94367 103.578 5.94367C103.578 5.86489 103.578 5.7861 103.578 5.70732C104.212 5.70732 104.846 5.70732 105.48 5.70732C105.48 7.91323 105.48 10.1191 105.48 12.4038C104.846 12.4038 104.212 12.4038 103.578 12.4038C103.578 12.2462 103.578 12.0887 103.578 12.0887C102.944 12.2462 102.389 12.5614 101.755 12.6402C100.566 12.7189 99.6946 12.1675 99.1399 11.1433C98.3475 9.64643 98.3475 8.07079 99.3777 6.65271C100.329 5.31341 101.993 5.07706 103.34 6.02245C103.419 6.10123 103.498 6.10123 103.578 6.18002ZM100.646 9.09496C100.646 10.1191 101.359 10.9857 102.231 10.9857C103.102 10.9857 103.895 10.1979 103.895 9.09496C103.895 8.07079 103.181 7.20419 102.231 7.20419C101.28 7.20419 100.646 8.07079 100.646 9.09496Z" fill="#D0090A"/>
<path d="M56.585 5.94364C56.585 5.94364 56.6643 5.94364 56.6643 5.86486C57.3775 5.54973 58.0907 5.47095 58.8831 5.47095C58.9624 5.47095 59.0416 5.47095 59.1209 5.47095C59.3586 5.54973 59.6756 5.62851 59.9133 5.70729C60.2303 5.94364 60.5473 6.10121 60.9435 6.33755C62.0529 7.59807 62.3699 9.01615 61.8152 10.5918C61.2605 12.0887 59.8341 12.8765 58.0114 12.7189C56.4265 12.5613 55.2378 11.4584 55.0001 9.88275C54.7624 8.46467 55.0793 7.20416 56.1095 6.25877C56.268 6.10121 56.4265 6.02242 56.585 5.94364ZM56.8227 9.09493C56.8227 10.1191 57.5359 10.9857 58.4076 10.9857C59.2794 10.9857 60.0718 10.1191 59.9926 9.09493C59.9926 8.07076 59.2794 7.20416 58.4076 7.20416C57.5359 7.20416 56.902 7.9132 56.8227 9.09493Z" fill="#D0090A"/>
<path d="M88.7587 5.47095C90.8983 5.47095 92.404 6.88903 92.404 9.09493C92.404 11.1433 90.9775 12.7189 88.8379 12.7189C86.6983 12.7189 85.1926 11.3008 85.1926 9.17371C85.1926 6.96781 86.619 5.47095 88.7587 5.47095ZM87.1738 8.93737C87.1738 9.17371 87.1738 9.33128 87.253 9.48884C87.4115 10.1191 87.7285 10.6706 88.4417 10.9069C89.0757 11.0645 89.6304 10.9069 90.0266 10.3554C90.5021 9.64641 90.5813 8.93737 90.1851 8.22833C89.9474 7.59807 89.4719 7.28294 88.7587 7.28294C88.0455 7.28294 87.6492 7.67685 87.4115 8.30711C87.253 8.46467 87.253 8.7798 87.1738 8.93737Z" fill="#D0090A"/>
<path d="M14.0301 12.4826C15.4566 13.9007 16.883 15.3187 18.3886 16.7368C18.0717 16.9732 17.9132 17.2095 17.5962 17.4459C16.1698 16.0278 14.7433 14.5309 13.3169 13.1128C11.0981 14.6097 8.79993 13.9794 7.532 12.4826C6.26407 10.9857 6.34332 8.70102 7.61125 7.12538C8.87918 5.62852 11.4943 5.39217 13.0792 6.41634C14.5849 7.51929 15.6943 9.96154 14.0301 12.4826ZM10.7811 6.81025C9.03767 6.81025 7.69049 8.14955 7.61125 9.80398C7.61125 11.5372 8.95842 12.9553 10.7018 12.9553C12.5245 12.9553 13.7924 11.616 13.7924 9.72519C13.8716 8.14955 12.4452 6.81025 10.7811 6.81025Z" fill="#DB0E7F"/>
<path d="M113.563 5.47095C113.642 5.47095 113.721 5.47095 113.8 5.47095C114.117 5.54973 114.434 5.70729 114.672 5.78608C114.831 5.86486 114.989 6.02242 115.148 6.10121C116.019 6.96781 116.336 8.07076 116.257 9.33128C114.751 9.33128 113.325 9.33128 111.898 9.33128C111.819 10.1191 112.136 10.8281 112.612 11.0645C113.166 11.3008 113.8 11.0645 114.276 10.513C114.355 10.4342 114.593 10.2767 114.751 10.3554C115.227 10.4342 115.702 10.513 116.257 10.5918C116.098 10.9069 116.019 11.1433 115.782 11.4584C114.989 12.5613 113.642 12.9553 112.215 12.6401C110.868 12.325 109.917 11.3008 109.759 9.88275C109.6 8.62224 109.759 7.4405 110.551 6.41633C110.71 6.17999 111.027 6.02242 111.265 5.86486C111.581 5.70729 111.978 5.62851 112.295 5.47095C112.453 5.47095 112.532 5.47095 112.691 5.47095C113.008 5.47095 113.325 5.47095 113.563 5.47095ZM111.978 8.30711C112.612 8.30711 113.246 8.30711 113.8 8.30711C113.88 8.30711 113.88 8.30711 113.959 8.30711C114.117 8.22833 114.355 8.14954 114.355 7.99198C114.355 7.4405 113.642 6.81025 113.087 6.88903C112.374 6.88903 111.898 7.59807 111.978 8.30711Z" fill="#D0090A"/>
<path d="M63.0039 5.70727C63.6379 5.70727 64.2718 5.70727 64.9058 5.70727C64.9058 5.86484 64.985 6.0224 64.985 6.10118C65.0643 6.10118 65.0643 6.10118 65.1435 6.10118C65.7775 5.47092 66.57 5.39214 67.3624 5.54971C68.2341 5.70727 68.9473 6.49509 69.0266 7.59805C69.1058 9.17369 69.0266 10.7493 69.0266 12.4038C68.3926 12.4038 67.7586 12.4038 67.1247 12.4038C67.1247 12.2462 67.1247 12.0886 67.1247 11.8523C67.1247 10.5918 67.1247 9.41004 67.1247 8.14952C67.1247 7.20413 66.4907 6.73144 65.6983 7.04657C65.2228 7.20413 65.0643 7.59805 65.0643 8.07074C64.985 9.25247 64.985 10.513 64.985 11.6947C64.985 11.9311 64.985 12.0886 64.985 12.4038C64.3511 12.4038 63.7171 12.4038 63.0832 12.4038C63.0039 10.1979 63.0039 7.99196 63.0039 5.70727Z" fill="#D20405"/>
<path d="M80.2002 2.08337C80.8342 2.08337 81.4681 2.08337 82.1814 2.08337C82.1814 4.91954 82.1814 7.7557 82.1814 10.6706C83.1323 10.6706 84.0832 10.6706 85.0342 10.6706C85.0342 11.3009 85.0342 11.8524 85.0342 12.4038C83.37 12.4038 81.7851 12.4038 80.121 12.4038C80.2002 9.01621 80.2002 5.54979 80.2002 2.08337Z" fill="#D20405"/>
<path d="M106.985 0.822876C107.619 0.822876 108.253 0.822876 108.887 0.822876C108.887 4.68321 108.887 8.54354 108.887 12.4826C108.253 12.4826 107.619 12.4826 106.985 12.4826C106.985 8.54354 106.985 4.68321 106.985 0.822876Z" fill="#D20405"/>
<path d="M17.7548 1.29553C16.4076 1.92579 15.5359 2.94996 15.2981 4.36804C15.1397 5.07708 15.2981 5.8649 15.5359 6.49516C16.0114 7.75567 17.0415 8.46472 18.3095 8.93741C19.3397 9.33132 20.1321 8.93741 21.0831 8.62228C21.0831 9.01619 21.0831 9.33132 21.0831 9.64645C20.9246 9.72523 20.6868 9.80401 20.5284 9.8828C20.5284 10.0404 20.4491 10.1979 20.4491 10.4343C20.4491 12.4038 20.4491 14.2946 20.4491 16.2642H20.3699C20.2906 16.2642 20.2906 16.2642 20.2114 16.2642C20.0529 16.2642 19.8151 16.1854 19.6567 16.1854C19.6567 14.3734 19.6567 12.4826 19.6567 10.6706C19.6567 10.5131 19.5774 10.3555 19.5774 10.1191C19.1812 10.0404 18.785 9.96158 18.3887 9.8828C16.0114 9.4101 14.268 7.2042 14.3472 4.84073C14.3472 2.39848 16.1698 0.350143 18.7057 0.0350143C19.1812 -0.0437679 19.7359 0.0350143 20.2906 0.0350143C20.3699 0.113797 20.5284 0.113797 20.6076 0.192579C20.7661 0.350143 21.0038 0.507708 21.0038 0.744055C21.0831 1.05918 20.7661 0.980401 20.5284 0.980401C20.4491 0.980401 20.3699 0.980401 20.2906 0.980401C20.2114 0.980401 20.2114 0.980401 20.1321 0.980401C19.8151 0.744055 18.9434 0.744055 18.6265 0.980401C18.5472 0.980401 18.468 0.980401 18.3887 0.980401C18.151 1.13797 17.9925 1.21675 17.7548 1.29553Z" fill="#910991"/>
<path d="M81.3889 21.6214C79.7247 21.6214 78.0606 21.6214 76.3964 21.6214C76.3964 22.4092 77.0304 23.3546 77.6643 23.5909C78.6945 23.9848 79.487 23.6697 80.5172 22.4092C80.7549 22.5668 81.0719 22.7243 81.3096 22.9607C80.7549 24.3 79.17 25.0878 77.8228 24.7727C76.0002 24.3787 75.0492 22.8819 75.287 20.9911C75.3662 20.2033 75.6832 19.4942 76.1587 18.864C76.7926 18.0762 78.9322 17.6823 79.9624 18.3913C80.9926 19.1791 81.5473 20.2821 81.3889 21.6214ZM80.2002 20.5972C80.1209 19.7306 79.3285 19.0216 78.4568 19.0216C77.4266 19.0216 76.5549 19.6518 76.4756 20.5972C77.6643 20.5972 78.9322 20.5972 80.2002 20.5972Z" fill="#F6820E"/>
<path d="M40.0227 11.5372C40.3397 11.1433 40.5774 10.8282 40.8944 10.4343C41.1321 10.5919 41.3699 10.8282 41.6076 10.907C41.9246 11.0646 42.2416 11.1433 42.5586 11.0646C42.7963 11.0646 43.034 10.7494 43.1133 10.5131C43.1925 10.3555 42.9548 10.0404 42.7963 9.88282C42.4001 9.64647 42.0038 9.48891 41.6076 9.25256C40.6567 8.77987 40.3397 8.22839 40.4982 7.20422C40.5774 6.33762 41.2906 5.62858 42.0831 5.47102C42.9548 5.31345 44.0642 5.5498 44.7774 6.10127C44.5397 6.4164 44.2227 6.81031 43.985 7.12544C43.668 7.12544 43.4303 6.96788 43.1133 6.8891C42.7963 6.81031 42.4793 6.96788 42.4001 7.28301C42.2416 7.67692 42.4793 7.83448 42.7963 7.91326C43.1133 8.07083 43.5095 8.22839 43.8265 8.38596C44.8567 8.85865 45.2529 9.48891 45.1737 10.5131C45.0944 11.4585 44.4605 12.3251 43.5095 12.5614C42.4001 12.8765 40.8944 12.6402 40.0227 11.5372Z" fill="#D0090A"/>
<path d="M45.7284 11.5372C45.9661 11.3008 46.2039 10.9857 46.4416 10.7494C46.5209 10.6706 46.7586 10.7494 46.9171 10.7494C47.3133 10.8281 47.6303 11.0645 47.9473 11.1433C48.3435 11.222 48.5812 11.0645 48.7397 10.6706C48.8982 10.2767 48.6605 10.0403 48.3435 9.88275C47.9473 9.72518 47.551 9.56762 47.1548 9.33127C46.2831 8.85858 45.8869 8.14954 46.1246 7.20415C46.2831 6.25877 47.0756 5.54972 48.0265 5.54972C48.8982 5.47094 49.6907 5.62851 50.4039 6.25877C50.1661 6.57389 49.9284 6.96781 49.6907 7.28293C49.3737 7.12537 49.0567 6.96781 48.7397 6.88902C48.4227 6.81024 48.1058 6.88902 48.0265 7.28293C47.9473 7.59806 48.1058 7.75563 48.4227 7.91319C48.7397 8.07076 49.136 8.22832 49.4529 8.38589C50.2454 8.7798 50.8001 9.33127 50.8001 10.2767C50.8001 11.3008 50.4039 12.0099 49.4529 12.4826C48.185 13.034 46.6001 12.6401 45.7284 11.5372Z" fill="#D0090A"/>
<path d="M69.9775 11.5372C70.2945 11.1433 70.5323 10.8281 70.8492 10.4342C71.1662 10.6706 71.404 10.9069 71.7209 10.9857C72.0379 11.0645 72.5134 11.1433 72.7511 10.9857C73.2266 10.7493 73.1474 10.1191 72.5926 9.80396C72.1964 9.64639 71.8002 9.48883 71.404 9.33126C70.453 8.85857 70.2153 8.30709 70.2945 7.28292C70.3738 6.41632 71.087 5.70728 71.8794 5.54971C72.6719 5.39215 73.5436 5.47093 74.2568 6.02241C74.4945 6.17997 74.4945 6.33754 74.336 6.4951C74.1776 6.73145 74.0191 6.96779 73.8606 7.28292C73.6228 7.12536 73.3851 7.04658 73.0681 6.88901C72.7511 6.73145 72.2757 6.88901 72.1964 7.20414C72.1964 7.59805 72.4342 7.75562 72.6719 7.91318C73.0681 8.07075 73.4643 8.30709 73.9398 8.46466C75.0493 8.93735 75.3662 10.4342 74.7323 11.3796C73.6228 13.034 71.2455 13.1128 69.9775 11.5372Z" fill="#D0090A"/>
<path d="M62.6869 24.6151C62.6077 24.6151 62.4492 24.6151 62.3699 24.6151C61.5775 24.6151 61.5775 24.6151 61.5775 23.8272C61.4982 23.906 61.419 23.906 61.3397 23.906C60.0718 24.9302 58.7246 25.009 57.3775 24.0636C57.2982 24.0636 57.2982 23.9848 57.219 23.9848C56.9812 23.5121 56.585 23.0394 56.4265 22.5667C56.0303 21.7001 56.1888 20.8335 56.4265 19.9669V19.8881C56.7435 19.4942 56.9812 18.9427 57.3775 18.6276C58.4077 17.761 59.5963 17.761 60.8643 18.3125C61.102 18.47 61.3397 18.7064 61.5775 18.9427C61.6567 18.0761 61.8945 17.9186 62.6869 18.2337C62.6869 20.3608 62.6869 22.4879 62.6869 24.6151ZM59.3586 18.864C59.2794 18.864 59.1209 18.864 58.9624 18.9427C58.0907 19.4154 57.4567 19.9669 57.3775 21.0699C57.2982 22.2516 57.9322 23.4333 58.8831 23.6697C60.2303 23.9848 61.3397 23.2758 61.5775 21.7789C61.8945 20.282 61.0228 18.9427 59.3586 18.864Z" fill="#F6820E"/>
<path d="M119.665 10.9069C119.981 10.513 119.981 10.1191 119.506 9.88275C119.11 9.64641 118.714 9.48884 118.238 9.33128C117.287 8.85859 116.97 8.14954 117.208 7.12538C117.366 6.25877 118.159 5.54973 119.11 5.47095C120.14 5.39217 120.932 5.62851 121.487 6.17999C121.249 6.49512 120.932 6.88903 120.695 7.20416C120.378 7.04659 120.061 6.88903 119.744 6.88903C119.506 6.88903 119.268 7.04659 119.11 7.20416C119.031 7.28294 119.189 7.59807 119.189 7.75563C119.665 7.99198 120.061 8.22833 120.536 8.46467C122.121 9.17371 122.28 11.2221 120.853 12.2462C119.665 13.1128 117.842 12.8765 116.732 11.616C116.812 11.5372 116.891 11.3796 116.97 11.3008L117.049 11.2221C117.287 10.6706 117.604 10.6706 118.08 11.0645C118.634 11.1433 119.189 11.3796 119.665 10.9069Z" fill="#D0090A"/>
<path d="M19.8151 22.1729C19.9735 22.1729 20.0528 22.1729 20.2113 22.1729C20.2113 24.0636 20.2113 25.8756 20.2113 27.7664C20.2113 28.1603 20.2905 28.3966 20.766 28.3966H20.8452C21.0037 28.7118 21.1622 29.0269 20.9245 29.4208H20.8452C20.766 29.342 20.6868 29.2633 20.6075 29.2633C20.132 29.2633 19.7358 29.2633 19.2603 29.2633C19.1811 29.2633 19.1018 29.342 19.0226 29.4208C17.4377 30.0511 16.566 31.154 16.566 32.6509C16.566 34.4629 17.9924 35.9597 19.8943 35.9597C20.2905 35.9597 20.6868 35.881 21.083 35.881C21.083 36.1173 21.1622 36.3537 21.083 36.59C21.083 36.7476 20.9245 36.9051 20.766 36.9051C18.4679 37.3778 16.3283 36.0385 15.6943 33.9114C14.9811 31.4692 16.3282 29.2633 18.6264 28.4754C18.7056 28.4754 18.8641 28.4754 18.9434 28.4754C19.3396 28.5542 19.4188 28.3179 19.4188 28.0027C19.4188 26.3483 19.4188 24.6151 19.4188 22.9607C19.4188 22.5668 19.4981 22.3304 19.8151 22.1729Z" fill="#F6820E"/>
<path d="M64.8265 18.1549C65.6982 17.9974 65.8567 17.9974 66.0152 18.5489C66.4907 18.3913 67.0454 18.0762 67.5209 17.9974C69.185 17.8398 69.819 18.5489 69.9775 20.0457C70.136 21.5426 69.9775 23.0394 69.9775 24.6151C69.6605 24.6151 69.2643 24.6151 68.8681 24.6151C68.8681 24.4575 68.8681 24.3 68.8681 24.0636C68.8681 22.8031 68.8681 21.4638 68.7888 20.2033C68.7888 19.4942 68.3926 19.1003 67.8379 19.0215C67.0454 18.864 66.4115 19.1791 66.0945 19.8094C66.0152 20.1245 65.936 20.4396 65.936 20.7548C65.936 21.7789 65.936 22.8819 65.936 23.906C65.936 24.1424 65.936 24.3 65.936 24.5363C65.5397 24.5363 65.1435 24.5363 64.8265 24.5363C64.8265 22.4092 64.8265 20.2821 64.8265 18.1549Z" fill="#F6820E"/>
<path d="M96.7625 7.12548C96.1286 7.12548 95.5739 7.20426 95.1776 7.75574C95.0984 7.83452 95.0984 7.83452 95.0191 7.9133C94.5437 8.38599 94.7814 9.01625 94.6229 9.56773C94.4644 10.1192 95.6531 11.2222 96.2078 11.2222C96.5248 11.2222 96.8418 11.0646 97.1588 10.907H97.238C97.3965 10.907 97.555 10.907 97.7135 10.9858C97.9512 12.0888 97.6342 12.5615 96.3663 12.5615C96.0493 12.5615 95.6531 12.5615 95.3361 12.5615C94.9399 12.3251 94.5437 12.1675 94.1474 11.9312C93.8305 11.4585 93.5135 10.9858 93.2757 10.5131C93.1965 10.2768 93.1173 10.0404 93.1173 9.80407C93.1173 9.33138 93.038 8.77991 93.1173 8.30721C93.1965 7.83452 93.4342 7.36182 93.5927 6.88913C94.0682 6.574 94.5437 6.25887 95.0191 5.94374C95.0984 5.86496 95.1776 5.78618 95.1776 5.7074C95.6531 5.7074 96.1286 5.7074 96.6041 5.7074C97.7135 5.7074 97.872 5.86496 97.7927 6.88913C97.7927 7.0467 97.7135 7.12548 97.7135 7.28304C97.555 7.20426 97.3965 7.20426 97.3173 7.12548C97.0795 6.96791 96.921 6.73157 96.7625 7.12548Z" fill="#D20405"/>
<path d="M48.1058 19.9669C46.3624 18.7063 45.253 18.7063 44.302 19.7305C43.4303 20.7547 43.5096 22.2515 44.4605 23.1182C45.4115 24.0635 46.7586 24.0635 48.1058 22.6455C48.1058 23.1182 48.1058 23.5121 48.1058 23.906C48.1058 23.9848 48.0266 24.1423 47.8681 24.2211C46.8379 24.9301 45.0945 24.9301 44.0643 24.2211C42.8756 23.3545 42.4001 22.2515 42.5586 20.7547C42.6379 19.8093 43.1926 19.1003 43.9058 18.47C44.7775 17.6822 46.9964 17.6822 47.8681 18.3912C47.9473 18.47 48.0266 18.5488 48.0266 18.7063C48.1058 19.1003 48.1058 19.4942 48.1058 19.9669Z" fill="#F6820E"/>
<path d="M41.2373 19.9669C39.4939 18.7063 38.3844 18.7063 37.4335 19.7305C36.5618 20.7547 36.641 22.2515 37.592 23.1182C38.5429 24.0635 39.8901 24.0635 41.2373 22.6455C41.2373 23.1182 41.2373 23.5121 41.2373 23.906C41.2373 23.9848 41.158 24.1423 40.9995 24.2211C39.9693 24.9301 38.2259 24.9301 37.1958 24.2211C36.0071 23.3545 35.5316 22.2515 35.6901 20.7547C35.7693 19.8093 36.3241 19.1003 37.0373 18.47C37.909 17.6822 40.1278 17.6822 40.9995 18.3912C41.0788 18.47 41.158 18.5488 41.158 18.7063C41.2373 19.1003 41.2373 19.4942 41.2373 19.9669Z" fill="#F6820E"/>
<path d="M37.0906 5.7074C37.7245 5.7074 38.3585 5.7074 38.9925 5.7074C38.9925 7.9133 38.9925 10.198 38.9925 12.4039C38.3585 12.4039 37.7245 12.4039 37.0906 12.4039C37.0906 10.198 37.0906 7.99208 37.0906 5.7074Z" fill="#D0090A"/>
<path d="M53.8907 12.4039C53.2567 12.4039 52.6227 12.4039 51.9888 12.4039C51.9888 10.1192 51.9888 7.9133 51.9888 5.7074C52.6227 5.7074 53.2567 5.7074 53.8907 5.7074C53.8907 7.9133 53.8907 10.198 53.8907 12.4039Z" fill="#D0090A"/>
<path d="M53.5737 19.1791C53.3359 19.1791 53.0982 19.1003 52.9397 19.1003C52.9397 18.7852 52.9397 18.47 52.9397 18.0761C53.6529 18.2337 53.5737 17.6822 53.5737 17.2095C53.5737 16.7368 53.5737 16.2641 53.5737 15.7126C53.9699 15.7126 54.2869 15.7126 54.6831 15.7126C54.6831 16.4217 54.6831 17.2095 54.6831 17.9973C55.0793 17.9973 55.4756 18.0761 55.951 18.0761C55.8718 18.47 55.8718 18.8639 55.7133 19.0215C55.4755 19.1791 55.0793 19.1003 54.6831 19.1003C54.6831 20.9123 54.6831 22.6455 54.6831 24.4575C54.2869 24.4575 53.9699 24.4575 53.5737 24.4575C53.5737 22.803 53.5737 20.9911 53.5737 19.1791Z" fill="#F6820E"/>
<path d="M73.4643 24.5363C73.0681 24.5363 72.6719 24.5363 72.3549 24.5363C72.3549 24.3787 72.2756 24.2999 72.2756 24.2211C72.2756 22.3304 72.2756 20.3608 72.2756 18.47C72.2756 18.1549 72.4341 17.9973 72.7511 18.0761C72.9888 18.0761 73.4643 17.9185 73.4643 18.3912C73.4643 20.4396 73.4643 22.4879 73.4643 24.5363Z" fill="#F58A1C"/>
<path d="M51.1964 24.6151C50.8001 24.6151 50.4831 24.6151 50.0869 24.6151C50.0869 24.4575 50.0869 24.2212 50.0869 24.0636C50.0869 22.3304 50.0869 20.5184 50.0869 18.7852C50.0869 18.0762 50.0869 18.0762 50.8001 18.0762C50.9586 18.0762 51.0379 18.0762 51.1964 18.155C51.1964 20.2821 51.1964 22.4092 51.1964 24.6151Z" fill="#F58A1C"/>
<path d="M52.9398 3.97414C52.3058 3.97414 51.7511 3.50144 51.7511 2.87119C51.7511 2.24093 52.3058 1.68945 52.8605 1.68945C53.4945 1.68945 54.0492 2.16215 54.0492 2.7924C54.0492 3.50145 53.5737 3.97414 52.9398 3.97414Z" fill="#D0090A"/>
<path d="M37.9623 1.76819C38.6756 1.76819 39.151 2.24088 39.151 2.87114C39.151 3.5014 38.5963 3.97409 37.9623 3.97409C37.3284 3.97409 36.7737 3.42262 36.8529 2.79236C36.8529 2.24088 37.3284 1.76819 37.9623 1.76819Z" fill="#D0090A"/>
<path d="M117.049 11.2221C116.97 11.3009 116.891 11.4584 116.812 11.5372C117.921 12.7977 119.744 13.0341 120.932 12.1675C122.359 11.1433 122.121 9.17374 120.615 8.38592C120.14 8.14957 119.744 7.91323 119.268 7.67688C120.14 7.99201 121.17 8.14957 121.646 9.01618C122.28 10.1979 122.121 11.6948 120.695 12.4826C119.665 13.1129 118.555 12.8765 117.525 12.4038C117.287 12.325 117.049 12.2463 116.891 12.0887C116.732 11.9311 116.653 11.6948 116.653 11.4584C116.653 11.3796 116.891 11.3009 117.049 11.2221Z" fill="#FDFDFA"/>
<path d="M51.434 15.6339C51.434 16.1066 51.1171 16.4217 50.6416 16.4217C50.1661 16.4217 49.8491 16.0278 49.8491 15.6339C49.8491 15.24 50.2454 14.8461 50.6416 14.8461C51.0378 14.8461 51.434 15.24 51.434 15.6339Z" fill="#F58A1C"/>
<path d="M73.7021 15.6339C73.7021 16.1066 73.3851 16.4217 72.9096 16.4217C72.5134 16.4217 72.1172 16.0278 72.1172 15.6339C72.1172 15.24 72.5134 14.8461 72.9096 14.8461C73.3059 14.8461 73.7021 15.24 73.7021 15.6339Z" fill="#F58A1C"/>
<path d="M20.766 28.3966C20.2905 28.3966 20.2113 28.1603 20.2113 27.7664C20.2113 25.8756 20.2113 24.0636 20.2113 22.1729C20.2905 22.3304 20.3698 22.4092 20.3698 22.5668C20.3698 24.3 20.3698 26.0332 20.3698 27.7664C20.3698 28.0815 20.449 28.3179 20.766 28.3966Z" fill="#F58A1C"/>
<path d="M96.7625 7.12541C96.921 6.81028 97.0795 6.96784 97.238 7.12541C97.3965 7.20419 97.555 7.28297 97.6342 7.28297C97.6342 7.12541 97.7135 7.04662 97.7135 6.88906C97.7927 5.94367 97.6342 5.70732 96.5248 5.70732C96.0493 5.70732 95.5739 5.70732 95.0984 5.70732C95.8908 5.3922 96.7625 5.47098 97.555 5.78611C97.7135 5.86489 97.7927 6.02245 97.872 6.18002C97.872 6.73149 97.872 7.20419 97.872 7.83445C97.4758 7.51932 97.1588 7.28297 96.7625 7.12541Z" fill="#D0090A"/>
<path d="M93.5134 6.88904C93.3549 7.36173 93.1172 7.83443 93.0379 8.30712C92.9587 8.77981 93.0379 9.33129 93.0379 9.80398C93.0379 10.0403 93.1172 10.2767 93.1964 10.513C93.4342 10.9857 93.8304 11.4584 94.0681 11.9311C92.6417 10.8282 92.3247 8.3859 93.5134 6.88904Z" fill="#D0090A"/>
<path d="M97.1588 10.9858C96.8418 11.0646 96.5248 11.3009 96.2078 11.3009C95.6531 11.3009 94.4644 10.198 94.6229 9.64649C94.7814 9.09502 94.5437 8.46476 95.0192 7.99207C94.9399 8.38598 94.7814 8.77989 94.7814 9.25258C94.7814 10.5131 95.7324 11.2221 97.1588 10.9858Z" fill="#D0090A"/>
<path d="M95.3361 12.5614C95.653 12.5614 96.0493 12.5614 96.3663 12.5614C97.6342 12.5614 97.8719 12.0888 97.7134 10.9858C97.5549 10.9858 97.3965 10.9858 97.238 10.907C97.4757 10.7495 97.6342 10.5919 97.9512 10.4343C97.9512 11.0646 97.9512 11.5373 97.9512 12.0888C97.9512 12.1675 97.7927 12.3251 97.7134 12.4039C96.921 12.719 96.1285 12.7978 95.3361 12.5614Z" fill="#D0090A"/>
<path d="M19.8151 22.1729C19.4981 22.2517 19.4188 22.488 19.4188 22.8031C19.4188 24.4576 19.4188 26.1908 19.4188 27.8452C19.4188 28.2391 19.3396 28.3967 18.9434 28.3179C19.3396 28.2391 19.4188 27.924 19.4188 27.5301C19.4188 25.7181 19.4188 23.9061 19.4188 21.9365C19.5773 22.1729 19.6566 22.1729 19.8151 22.1729Z" fill="#F58A1C"/>
<path d="M119.665 10.9069C119.189 11.3796 118.634 11.1433 118.238 10.8282C117.763 10.513 117.446 10.513 117.208 10.9857C117.208 11.0645 117.129 11.0645 117.129 11.0645C117.129 10.513 117.525 10.1191 118 10.1979C118.08 10.1979 118.238 10.1979 118.238 10.2767C118.476 11.1433 119.031 11.0645 119.665 10.9069Z" fill="#FDFDFA"/>
<path d="M19.4982 10.1191C19.4982 10.2767 19.5774 10.4343 19.5774 10.6706C19.5774 12.4826 19.5774 14.3734 19.5774 16.1854C19.7359 16.1854 19.9736 16.2642 20.1321 16.2642C20.2114 16.2642 20.2114 16.2642 20.2906 16.2642C20.0529 16.2642 19.8152 16.3429 19.4982 16.3429C19.4982 14.2158 19.4982 12.1675 19.4982 10.1191Z" fill="#783F74"/>
<path d="M20.4491 16.2642C20.4491 14.2946 20.4491 12.4038 20.4491 10.4343C20.4491 10.2767 20.5283 10.1192 20.5283 9.88281C20.5283 11.9312 20.5283 13.9007 20.5283 15.949C20.5283 16.0278 20.4491 16.1854 20.4491 16.2642Z" fill="#6A1D6B"/>
<path d="M4.99624 27.8451C4.917 28.1602 4.83775 28.3966 4.83775 28.7117C4.83775 29.4995 4.83775 30.2873 4.83775 30.9964C4.75851 30.9176 4.67926 30.8388 4.67926 30.8388C4.75851 29.8934 4.52077 28.948 4.83775 28.0027C4.83775 27.9239 4.917 27.9239 4.99624 27.8451Z" fill="#FDFDFA"/>
<path d="M58.8832 5.47104C58.0907 5.47104 57.3775 5.54982 56.6643 5.86495C56.7436 5.78617 56.8228 5.54982 56.902 5.54982C57.536 5.47104 58.17 5.39226 58.8039 5.31348C58.8039 5.31348 58.8039 5.39226 58.8832 5.47104Z" fill="#FDFDFA"/>
<path d="M6.89804 14.1371C6.02634 14.1371 5.15464 14.1371 4.36218 14.1371C5.15464 13.822 6.02634 13.822 6.89804 14.1371Z" fill="#67BEE9"/>
<path d="M95.0983 5.7074C95.0191 5.78618 95.0191 5.94374 94.9398 5.94374C94.4644 6.25887 93.9889 6.574 93.5134 6.88913C93.9097 6.33766 94.4644 5.86496 95.0983 5.7074Z" fill="#D0090A"/>
<path d="M20.2905 1.05916C20.3698 1.05916 20.449 1.05916 20.5283 1.05916C20.6868 1.05916 21.083 1.13794 21.0037 0.82281C21.0037 0.586463 20.766 0.428899 20.6075 0.271334C20.5283 0.192552 20.3698 0.11377 20.2905 0.11377C20.6075 0.192552 20.8452 0.271334 21.1622 0.350116C21.1622 0.744028 21.1622 1.05916 21.1622 1.45307C20.8452 1.2955 20.5283 1.21672 20.2905 1.05916Z" fill="#822B83"/>
<path d="M19.0227 29.4207C19.102 29.342 19.1812 29.2632 19.2604 29.2632C19.7359 29.2632 20.1321 29.2632 20.6076 29.2632C20.6869 29.2632 20.7661 29.342 20.8454 29.4207C20.2114 29.4207 19.5774 29.4207 19.0227 29.4207Z" fill="#F58A1C"/>
<path d="M18.6265 1.05922C18.9434 0.822871 19.8151 0.822871 20.1321 1.05922C19.5774 1.05922 19.1019 1.05922 18.6265 1.05922Z" fill="#822B83"/>
<path d="M94.1475 11.9312C94.5437 12.1675 94.9399 12.3251 95.3362 12.5614C94.9399 12.3251 94.5437 12.1675 94.1475 11.9312Z" fill="#D0090A"/>
<path d="M20.9246 29.4208C21.1623 29.0269 21.0038 28.7118 20.8453 28.3967C21.1623 28.3179 21.2416 28.5542 21.1623 28.7906C21.0831 29.0269 21.4001 29.3421 20.9246 29.4208Z" fill="#F58A1C"/>
<path d="M112.374 5.47095C112.057 5.62851 111.661 5.70729 111.344 5.86486C111.344 5.62851 111.423 5.47095 111.661 5.47095C111.898 5.54973 112.136 5.47095 112.374 5.47095Z" fill="#FDFDFA"/>
<path d="M60.9435 6.33766C60.6265 6.10131 60.3096 5.94374 59.9133 5.7074C60.3888 5.7074 60.7058 5.86496 60.9435 6.33766Z" fill="#FDFDFA"/>
<path d="M113.563 5.47096C113.325 5.47096 113.008 5.47096 112.77 5.47096C113.008 5.23461 113.325 5.23461 113.563 5.47096Z" fill="#FDFDFA"/>
<path d="M59.9133 5.70729C59.6756 5.62851 59.3586 5.54973 59.1208 5.47095C59.3586 5.54973 59.5963 5.62851 59.9133 5.70729Z" fill="#FDFDFA"/>
<path d="M114.672 5.78608C114.355 5.70729 114.038 5.54973 113.8 5.47095C114.038 5.62851 114.355 5.70729 114.672 5.78608Z" fill="#FDFDFA"/>
<path d="M7.53211 14.4522C7.37362 14.3734 7.21513 14.2946 7.05664 14.1371C7.21513 14.2946 7.37362 14.3734 7.53211 14.4522Z" fill="#67BEE9"/>
<path d="M56.5851 5.94367C56.4266 6.02245 56.2681 6.10123 56.1096 6.2588C56.0303 5.7861 56.3473 5.94367 56.5851 5.94367Z" fill="#FDFDFA"/>
<path d="M4.20377 14.1371C4.04528 14.2159 3.88678 14.2947 3.64905 14.3734C3.88678 14.2947 4.04528 14.2159 4.20377 14.1371Z" fill="#67BEE9"/>
<path d="M17.7548 1.2955C17.9133 1.21672 18.151 1.13794 18.3095 1.13794C18.151 1.13794 17.9925 1.21672 17.7548 1.2955Z" fill="#822B83"/>
<path d="M115.147 6.10126C114.989 6.02248 114.83 5.86492 114.672 5.78613C114.91 5.78613 115.147 5.78613 115.147 6.10126Z" fill="#FDFDFA"/>
<path d="M95.0192 7.91318C95.0984 7.8344 95.0984 7.8344 95.1777 7.75562C95.0984 7.75562 95.0984 7.8344 95.0192 7.91318Z" fill="#D0090A"/>
<path d="M5.8679 28.7118C5.8679 29.342 5.8679 29.9723 5.8679 30.6026C5.78865 30.6026 5.70941 30.5238 5.70941 30.5238C5.63016 29.9723 5.47167 29.342 5.8679 28.7118Z" fill="#AFEC63"/>
<path d="M9.90937 18.0761C9.83012 17.9186 9.75088 17.761 9.67163 17.5247C9.75088 17.761 9.83012 17.9186 9.90937 18.0761Z" fill="#67BEE9"/>
<path d="M9.67168 17.5247C9.59243 17.4459 9.51318 17.2884 9.51318 17.2096C9.51318 17.2884 9.59243 17.3672 9.67168 17.5247Z" fill="#67BEE9"/>
<path d="M9.51323 17.2096C9.43398 17.1308 9.43398 17.052 9.35474 17.052C9.35474 17.052 9.43398 17.1308 9.51323 17.2096Z" fill="#67BEE9"/>
<path d="M20.2113 16.2642C20.0528 16.2642 19.8151 16.1854 19.6566 16.1854C19.8151 16.1854 19.9736 16.1854 20.2113 16.2642Z" fill="#6A1D6B"/>
</svg>
