<svg width="48" height="55" viewBox="0 0 48 55" fill="none" xmlns="http://www.w3.org/2000/svg">
<path d="M1.53551 54.0679C1.21421 53.3182 1 52.5684 1 51.7116C1 49.6767 2.07103 47.963 3.67756 46.9991C3.24915 46.2494 3.03495 45.3926 3.03495 44.5358C3.03495 41.5369 5.49831 39.1806 8.39008 39.1806C8.71138 39.1806 9.13979 39.1806 9.4611 39.2877V39.1806C9.4611 36.5031 11.7103 34.2539 14.3878 34.2539C15.3517 34.2539 20.0643 32.8616 21.9921 32.8616C24.1342 32.8616 28.7396 34.6823 29.7035 34.6823C31.9526 34.6823 33.8805 36.1818 34.416 38.3238C35.2728 37.8954 36.2367 37.5741 37.3078 37.5741C40.6279 37.5741 43.3055 40.2516 43.3055 43.5718C43.3055 44.3215 43.1984 45.1784 42.8771 45.821C44.912 46.7849 46.5186 49.3554 46.1973 51.1761" stroke="white" stroke-width="2" stroke-miterlimit="10"/>
<path d="M20.7068 50.2122C20.7068 46.9991 23.3844 44.3215 26.5974 44.3215" stroke="white" stroke-width="2" stroke-miterlimit="10"/>
<path d="M22.3132 45.821C21.3493 44.4287 19.6357 43.4648 17.8149 43.3577" stroke="white" stroke-width="2" stroke-miterlimit="10"/>
<path d="M26.1689 21.0832V10.373C26.1689 7.05278 25.205 4.69653 24.0268 2.87578C23.2771 1.69766 20.4925 1.69766 19.7427 2.87578C18.5646 4.69653 17.6007 7.05278 17.6007 10.373V21.0832L10.1035 27.5094V30.7224H17.6007L19.7427 32.8645H24.1339L26.1689 30.7224H33.6661V27.5094L26.1689 21.0832Z" stroke="white" stroke-width="2" stroke-miterlimit="10"/>
</svg>
