<svg width="64" height="38" viewBox="0 0 64 38" fill="none" xmlns="http://www.w3.org/2000/svg">
<path d="M30.9744 28V37L34.9744 34L38.9744 37V28" stroke="white" stroke-width="2" stroke-miterlimit="10" stroke-linejoin="round"/>
<path d="M58.0744 18.9001C57.5744 21.0001 56.2744 23.5001 54.0744 24.9001H41.4744M11.9744 9.9001C11.9744 9.9001 7.77442 9.9001 7.27442 9.9001C6.77442 10.9001 6.27442 12.3001 6.27442 14.0001C6.27442 17.1001 8.17442 19.1001 10.2744 19.1001C13.5744 19.1001 14.7744 15.8001 14.7744 12.1001C14.7744 6.2001 11.2744 3.1001 7.77442 3.1001C3.57442 3.1001 0.474422 8.5001 1.07442 15.1001C1.57442 20.5001 4.27442 23.2001 6.87442 25.1001L27.9744 25.0107" stroke="white" stroke-width="2" stroke-miterlimit="10"/>
<path d="M9.77437 19.1H25.4744M7.97437 3H26.4744M44.9744 19H59.9744C61.5744 17.3 62.9744 14.7 62.9744 11C62.9744 5.1 59.4744 3 55.9744 3H34.9744" stroke="white" stroke-width="2" stroke-miterlimit="10"/>
<path d="M29.5201 9C28.828 5.61409 27.3351 3.18034 24.9744 2L25.9744 1H29.9744C33.7225 1 36.1217 3.89067 37.2388 8" stroke="white" stroke-width="2" stroke-miterlimit="10"/>
<path d="M34.9743 9.49989C36.9743 6.49989 41.6743 8.39989 40.9743 11.9999C44.5743 11.2999 46.4743 15.9999 43.4743 17.9999C46.4743 19.9999 44.5743 24.6999 40.9743 23.9999C41.6743 27.5999 36.9743 29.4999 34.9743 26.4999C32.9743 29.4999 28.2743 27.5999 28.9743 23.9999C25.3743 24.6999 23.4743 19.9999 26.4743 17.9999C23.4743 15.9999 25.3743 11.2999 28.9743 11.9999C28.1743 8.39989 32.9743 6.39989 34.9743 9.49989Z" stroke="white" stroke-width="2" stroke-miterlimit="10" stroke-linejoin="round"/>
<path d="M28.9744 12L29.9744 13" stroke="white" stroke-width="2" stroke-miterlimit="10" stroke-linejoin="round"/>
<path d="M40.9744 24L39.9744 23" stroke="white" stroke-width="2" stroke-miterlimit="10" stroke-linejoin="round"/>
<path d="M40.9744 12L39.9744 13" stroke="white" stroke-width="2" stroke-miterlimit="10" stroke-linejoin="round"/>
<path d="M28.9744 24L29.9744 23" stroke="white" stroke-width="2" stroke-miterlimit="10" stroke-linejoin="round"/>
<path d="M43.9744 18H41.9744" stroke="white" stroke-width="2" stroke-miterlimit="10" stroke-linejoin="round"/>
<path d="M27.9744 18H25.9744" stroke="white" stroke-width="2" stroke-miterlimit="10" stroke-linejoin="round"/>
<path d="M34.9744 9V11" stroke="white" stroke-width="2" stroke-miterlimit="10" stroke-linejoin="round"/>
<path d="M34.9744 27V25" stroke="white" stroke-width="2" stroke-miterlimit="10" stroke-linejoin="round"/>
<path d="M34.9744 22C37.1835 22 38.9744 20.2091 38.9744 18C38.9744 15.7909 37.1835 14 34.9744 14C32.7652 14 30.9744 15.7909 30.9744 18C30.9744 20.2091 32.7652 22 34.9744 22Z" stroke="white" stroke-width="2" stroke-miterlimit="10" stroke-linejoin="round"/>
</svg>
