<svg width="65" height="50" viewBox="0 0 65 50" fill="none" xmlns="http://www.w3.org/2000/svg">
<path d="M51.7931 14H57.8276L63 20L57.8276 26H38V14H42.3103" stroke="black" stroke-width="2" stroke-miterlimit="10"/>
<path d="M41 14H43" stroke="black" stroke-width="2" stroke-miterlimit="10"/>
<path d="M45 14H48" stroke="black" stroke-width="2" stroke-miterlimit="10"/>
<path d="M29 17V5.5C29 3 31 1 33.5 1C36 1 38 3 38 5.5V50M29 20V50" stroke="black" stroke-width="2" stroke-miterlimit="10"/>
<path d="M29 8H22" stroke="black" stroke-width="2" stroke-miterlimit="10"/>
<path d="M38 20H45" stroke="black" stroke-width="2" stroke-miterlimit="10"/>
<path d="M16 8H8L2 14L8 20H35" stroke="black" stroke-width="2" stroke-miterlimit="10"/>
<path d="M22.3333 38H29V26H14L9 32L14 38H17.3333" stroke="black" stroke-width="2" stroke-miterlimit="10"/>
<path d="M20 8H18" stroke="black" stroke-width="2" stroke-miterlimit="10"/>
<path d="M23 38H21" stroke="black" stroke-width="2" stroke-miterlimit="10"/>
<path d="M47 20H49" stroke="black" stroke-width="2" stroke-miterlimit="10"/>
<path d="M51 20H53" stroke="black" stroke-width="2" stroke-miterlimit="10"/>
</svg>
