<svg width="45" height="45" viewBox="0 0 45 45" fill="none" xmlns="http://www.w3.org/2000/svg">
<path d="M25 19L26 18C27.5 16.5 29.5 14 33 14H38C40.7 14 44 15.1 44 20V26C44 28.4 41.9 30 40 30" stroke="white" stroke-width="2" stroke-miterlimit="10"/>
<path d="M31 27V21H30L28 23" stroke="white" stroke-width="2" stroke-miterlimit="10"/>
<path d="M40 20V32" stroke="white" stroke-width="2" stroke-miterlimit="10"/>
<path d="M15 45V21H16C16 21 18.6 23.6 20 25C22.6 27.6 26 25 26 25C26 25 21.4 19.6 20 18C18.3 16.1 16.5 14 13 14H7C4.3 14 1 15.1 1 20V27C1 29.4 3.1 31 5 31" stroke="white" stroke-width="2" stroke-miterlimit="10"/>
<path d="M5 20V45" stroke="white" stroke-width="2" stroke-miterlimit="10"/>
<path d="M10 30V45" stroke="white" stroke-width="2" stroke-miterlimit="10"/>
<path d="M10 1C7.9 1 6 2.7 6 5V7C6 9.3 7.9 11 10 11C12.1 11 14 9.3 14 7V5C14 2.7 12.1 1 10 1Z" stroke="white" stroke-width="2" stroke-miterlimit="10"/>
<path d="M35 1C32.9 1 31 2.7 31 5V7C31 9.3 32.9 11 35 11C37.1 11 39 9.3 39 7V5C39 2.7 37.1 1 35 1Z" stroke="white" stroke-width="2" stroke-miterlimit="10"/>
</svg>
